<svg width="20" height="16" viewBox="0 0 20 16" fill="none" xmlns="http://www.w3.org/2000/svg">
<path d="M7.27236 0.315915L0.286481 7.30179C0.221141 7.37655 0.167322 7.46064 0.126804 7.55128L0.066925 7.63112C0.0254356 7.75318 0.0051826 7.88145 0.00704615 8.01036C-0.00234918 8.09326 -0.00234917 8.17695 0.00704616 8.25985L0.00704616 8.38959C0.0434897 8.4541 0.0870039 8.51435 0.136784 8.56923L0.226602 8.71892L7.21248 15.7048C7.30525 15.7983 7.41563 15.8726 7.53725 15.9232C7.65886 15.9739 7.7893 16 7.92104 16C8.05279 16 8.18323 15.9739 8.30485 15.9232C8.42646 15.8726 8.53684 15.7983 8.62961 15.7048C8.72315 15.612 8.7974 15.5016 8.84806 15.38C8.89873 15.2584 8.92481 15.128 8.92481 14.9962C8.92481 14.8645 8.89873 14.734 8.84806 14.6124C8.7974 14.4908 8.72315 14.3804 8.62961 14.2877L3.38023 9.00834L18.4597 9.00834C18.7244 9.00834 18.9783 8.90319 19.1654 8.71604C19.3526 8.52888 19.4577 8.27504 19.4577 8.01036C19.4577 7.74567 19.3526 7.49183 19.1654 7.30468C18.9783 7.11752 18.7244 7.01237 18.4597 7.01237L3.42015 7.01237L8.72941 1.73305C8.82295 1.64027 8.89719 1.5299 8.94786 1.40828C8.99853 1.28667 9.02461 1.15623 9.02461 1.02448C9.02461 0.892735 8.99853 0.762293 8.94786 0.64068C8.89719 0.519066 8.82295 0.40869 8.72941 0.315915C8.63606 0.216205 8.52323 0.136718 8.39792 0.082378C8.27261 0.0280377 8.13747 -3.557e-07 8.00088 -3.4973e-07C7.8643 -3.43759e-07 7.72916 0.0280377 7.60385 0.0823781C7.47853 0.136718 7.36571 0.216205 7.27236 0.315915Z" fill="#16A75C"/>
</svg>
