<svg width="24" height="24" viewBox="0 0 24 24" fill="none" xmlns="http://www.w3.org/2000/svg">
<path d="M10.6 13.799L8.425 11.624C8.24167 11.4407 8.01667 11.349 7.75 11.349C7.48333 11.349 7.25 11.449 7.05 11.649C6.86667 11.8324 6.775 12.0657 6.775 12.349C6.775 12.6324 6.86667 12.8657 7.05 13.049L9.9 15.899C10.0833 16.0824 10.3167 16.174 10.6 16.174C10.8833 16.174 11.1167 16.0824 11.3 15.899L16.975 10.224C17.1583 10.0407 17.25 9.81569 17.25 9.54902C17.25 9.28236 17.15 9.04902 16.95 8.84902C16.7667 8.66569 16.5333 8.57402 16.25 8.57402C15.9667 8.57402 15.7333 8.66569 15.55 8.84902L10.6 13.799ZM12 21.999C10.6167 21.999 9.31667 21.7364 8.1 21.211C6.88333 20.6857 5.825 19.9734 4.925 19.074C4.025 18.174 3.31267 17.1157 2.788 15.899C2.26333 14.6824 2.00067 13.3824 2 11.999C2 10.6157 2.26267 9.31569 2.788 8.09902C3.31333 6.88236 4.02567 5.82402 4.925 4.92402C5.825 4.02402 6.88333 3.31169 8.1 2.78702C9.31667 2.26236 10.6167 1.99969 12 1.99902C13.3833 1.99902 14.6833 2.26169 15.9 2.78702C17.1167 3.31236 18.175 4.02469 19.075 4.92402C19.975 5.82402 20.6877 6.88236 21.213 8.09902C21.7383 9.31569 22.0007 10.6157 22 11.999C22 13.3824 21.7373 14.6824 21.212 15.899C20.6867 17.1157 19.9743 18.174 19.075 19.074C18.175 19.974 17.1167 20.6867 15.9 21.212C14.6833 21.7374 13.3833 21.9997 12 21.999Z" fill="#16A75C"/>
</svg>
