<svg width="24" height="24" viewBox="0 0 24 24" fill="none" xmlns="http://www.w3.org/2000/svg">
<path d="M12.85 12.0992C12.6833 12.2659 12.5 12.3076 12.3 12.2242C12.1 12.1409 12 11.9826 12 11.7492V3.94922C12 3.66589 12.096 3.42822 12.288 3.23622C12.48 3.04422 12.7173 2.94856 13 2.94922H20C20.2833 2.94922 20.521 3.04522 20.713 3.23722C20.905 3.42922 21.0007 3.66656 21 3.94922V8.94922C21 9.23256 20.904 9.47022 20.712 9.66222C20.52 9.85422 20.2827 9.94989 20 9.94922H15L12.85 12.0992ZM19.95 20.9992C17.8 20.9992 15.7043 20.5199 13.663 19.5612C11.6217 18.6026 9.81333 17.3359 8.238 15.7612C6.66267 14.1866 5.396 12.3782 4.438 10.3362C3.48 8.29422 3.00067 6.19856 3 4.04922C3 3.74922 3.1 3.49922 3.3 3.29922C3.5 3.09922 3.75 2.99922 4.05 2.99922H8.1C8.33333 2.99922 8.54167 3.07422 8.725 3.22422C8.90833 3.37422 9.01667 3.56589 9.05 3.79922L9.7 7.29922C9.73333 7.53256 9.729 7.74522 9.687 7.93722C9.645 8.12922 9.54933 8.29989 9.4 8.44922L7 10.8992C7.7 12.0992 8.575 13.2242 9.625 14.2742C10.675 15.3242 11.8333 16.2326 13.1 16.9992L15.45 14.6492C15.6 14.4992 15.796 14.3869 16.038 14.3122C16.28 14.2376 16.5173 14.2166 16.75 14.2492L20.2 14.9492C20.4333 14.9992 20.625 15.1119 20.775 15.2872C20.925 15.4626 21 15.6666 21 15.8992V19.9492C21 20.2492 20.9 20.4992 20.7 20.6992C20.5 20.8992 20.25 20.9992 19.95 20.9992Z" fill="#1FB767"/>
</svg>
