<svg width="24" height="24" viewBox="0 0 24 24" fill="none" xmlns="http://www.w3.org/2000/svg">
<path d="M12 1.99902C17.523 1.99902 22 6.47602 22 11.999C22 17.522 17.523 21.999 12 21.999C6.477 21.999 2 17.522 2 11.999C2 6.47602 6.477 1.99902 12 1.99902ZM9.879 8.46302C9.69946 8.28177 9.45743 8.17599 9.20245 8.16734C8.94748 8.15869 8.69883 8.24782 8.50742 8.41649C8.31601 8.58516 8.1963 8.82061 8.1728 9.07465C8.14929 9.32869 8.22378 9.5821 8.381 9.78302L8.465 9.87802L10.585 11.998L8.465 14.12C8.28375 14.2996 8.17797 14.5416 8.16932 14.7966C8.16067 15.0515 8.2498 15.3002 8.41847 15.4916C8.58713 15.683 8.82258 15.8027 9.07662 15.8262C9.33066 15.8497 9.58408 15.7752 9.785 15.618L9.879 15.535L12 13.413L14.121 15.535C14.3005 15.7163 14.5426 15.8221 14.7975 15.8307C15.0525 15.8394 15.3012 15.7502 15.4926 15.5816C15.684 15.4129 15.8037 15.1774 15.8272 14.9234C15.8507 14.6694 15.7762 14.4159 15.619 14.215L15.536 14.12L13.414 11.999L15.536 9.87802C15.7173 9.69848 15.823 9.45645 15.8317 9.20148C15.8403 8.9465 15.7512 8.69786 15.5825 8.50644C15.4139 8.31503 15.1784 8.19532 14.9244 8.17182C14.6703 8.14832 14.4169 8.2228 14.216 8.38002L14.121 8.46302L12 10.585L9.879 8.46302Z" fill="#EF5350"/>
</svg>
