<svg width="16" height="16" viewBox="0 0 16 16" fill="none" xmlns="http://www.w3.org/2000/svg">
<g clip-path="url(#clip0_694_11222)">
<line x1="0.75" y1="15.25" x2="15.25" y2="15.25" stroke="#16A75C" stroke-width="1.5" stroke-linecap="round"/>
<mask id="path-2-inside-1_694_11222" fill="white">
<path d="M14.752 16C14.752 15.1133 14.5774 14.2353 14.2381 13.4161C13.8987 12.5969 13.4014 11.8526 12.7744 11.2256C12.1474 10.5986 11.4031 10.1012 10.5839 9.76192C9.76467 9.4226 8.88667 9.24796 7.99997 9.24796C7.11328 9.24796 6.23527 9.4226 5.41608 9.76192C4.59688 10.1012 3.85254 10.5986 3.22555 11.2256C2.59857 11.8526 2.10122 12.5969 1.76189 13.4161C1.42257 14.2353 1.24792 15.1133 1.24792 16L7.99997 16H14.752Z"/>
</mask>
<path d="M14.752 16C14.752 15.1133 14.5774 14.2353 14.2381 13.4161C13.8987 12.5969 13.4014 11.8526 12.7744 11.2256C12.1474 10.5986 11.4031 10.1012 10.5839 9.76192C9.76467 9.4226 8.88667 9.24796 7.99997 9.24796C7.11328 9.24796 6.23527 9.4226 5.41608 9.76192C4.59688 10.1012 3.85254 10.5986 3.22555 11.2256C2.59857 11.8526 2.10122 12.5969 1.76189 13.4161C1.42257 14.2353 1.24792 15.1133 1.24792 16L7.99997 16H14.752Z" stroke="#16A75C" stroke-width="3" mask="url(#path-2-inside-1_694_11222)"/>
<path d="M7.29317 1.08866C7.57993 0.99132 7.87754 0.936146 8.17684 0.923438C7.46309 3.04907 8.82153 5.34851 10.9792 5.79404C10.8195 6.04377 10.6247 6.27119 10.3994 6.46876C9.92843 6.88177 9.3456 7.14585 8.72457 7.22761C8.10355 7.30936 7.47222 7.20513 6.91044 6.92809C6.34865 6.65105 5.88163 6.21364 5.56844 5.67117C5.25525 5.12871 5.10995 4.50555 5.15092 3.88051C5.19188 3.25546 5.41728 2.65661 5.7986 2.15966C6.17991 1.66272 6.70003 1.29001 7.29317 1.08866Z" stroke="#16A75C" stroke-width="1.5"/>
<line x1="7.90375" y1="9.7421" x2="7.90375" y2="7.5555" stroke="#16A75C" stroke-width="1.5" stroke-linecap="round"/>
</g>
<defs>
<clipPath id="clip0_694_11222">
<rect width="16" height="16" fill="white"/>
</clipPath>
</defs>
</svg>
