<svg width="16" height="17" viewBox="0 0 16 17" fill="none" xmlns="http://www.w3.org/2000/svg">
<path d="M2.632 9.37769C2.57232 9.54063 2.45145 9.67389 2.29508 9.74913C2.13871 9.82438 1.95916 9.83568 1.79459 9.78065C1.63001 9.72562 1.49338 9.60859 1.41373 9.45442C1.33407 9.30025 1.31767 9.12109 1.368 8.95502C1.39171 8.88161 1.41931 8.80817 1.45067 8.73769C1.504 8.61102 1.58267 8.43636 1.69067 8.22969C1.91067 7.81636 2.25334 7.26569 2.75867 6.71502C3.77867 5.60169 5.44934 4.49902 8 4.49902C10.5507 4.49902 12.2213 5.60169 13.2413 6.71502C13.7858 7.31233 14.2273 7.99583 14.548 8.73769L14.6093 8.88836C14.6133 8.89902 14.6267 8.96836 14.64 9.03502L14.6667 9.16569C14.6667 9.16569 14.7787 9.60969 14.2107 9.79769C14.0434 9.85355 13.8608 9.84086 13.7029 9.76239C13.5449 9.68392 13.4245 9.54607 13.368 9.37902V9.37502L13.36 9.35369C13.293 9.18241 13.2165 9.01504 13.1307 8.85236C12.8936 8.40505 12.6006 7.98971 12.2587 7.61636C11.4453 6.72969 10.116 5.83236 8 5.83236C5.884 5.83236 4.55467 6.72969 3.74134 7.61636C3.30099 8.09912 2.94289 8.6509 2.68133 9.24969C2.66735 9.2841 2.65401 9.31877 2.64134 9.35369L2.632 9.37769ZM8 7.16569C7.29276 7.16569 6.61448 7.44664 6.11438 7.94674C5.61429 8.44684 5.33334 9.12511 5.33334 9.83236C5.33334 10.5396 5.61429 11.2179 6.11438 11.718C6.61448 12.2181 7.29276 12.499 8 12.499C8.70725 12.499 9.38552 12.2181 9.88562 11.718C10.3857 11.2179 10.6667 10.5396 10.6667 9.83236C10.6667 9.12511 10.3857 8.44684 9.88562 7.94674C9.38552 7.44664 8.70725 7.16569 8 7.16569ZM6.66667 9.83236C6.66667 9.47873 6.80714 9.1396 7.05719 8.88955C7.30724 8.6395 7.64638 8.49902 8 8.49902C8.35362 8.49902 8.69276 8.6395 8.94281 8.88955C9.19286 9.1396 9.33334 9.47873 9.33334 9.83236C9.33334 10.186 9.19286 10.5251 8.94281 10.7752C8.69276 11.0252 8.35362 11.1657 8 11.1657C7.64638 11.1657 7.30724 11.0252 7.05719 10.7752C6.80714 10.5251 6.66667 10.186 6.66667 9.83236Z" fill="#868C89"/>
</svg>
