<svg width="24" height="24" viewBox="0 0 24 24" fill="none" xmlns="http://www.w3.org/2000/svg">
<path fill-rule="evenodd" clip-rule="evenodd" d="M7.465 1.06502C8.638 1.01102 9.012 0.999023 12 0.999023C14.988 0.999023 15.362 1.01202 16.534 1.06502C17.706 1.11802 18.506 1.30502 19.206 1.57602C19.939 1.85302 20.604 2.28602 21.154 2.84602C21.714 3.39502 22.146 4.05902 22.422 4.79302C22.694 5.49302 22.88 6.29302 22.934 7.46302C22.988 8.63802 23 9.01202 23 11.999C23 14.987 22.987 15.361 22.934 16.534C22.881 17.704 22.694 18.504 22.422 19.204C22.146 19.9381 21.7133 20.6032 21.154 21.153C20.604 21.713 19.939 22.145 19.206 22.421C18.506 22.693 17.706 22.879 16.536 22.933C15.362 22.987 14.988 22.999 12 22.999C9.012 22.999 8.638 22.986 7.465 22.933C6.295 22.88 5.495 22.693 4.795 22.421C4.06092 22.145 3.39582 21.7123 2.846 21.153C2.28638 20.6037 1.85331 19.9389 1.577 19.205C1.306 18.505 1.12 17.705 1.066 16.535C1.012 15.36 1 14.986 1 11.999C1 9.01102 1.013 8.63702 1.066 7.46502C1.119 6.29302 1.306 5.49302 1.577 4.79302C1.85372 4.0591 2.28712 3.39434 2.847 2.84502C3.39604 2.28552 4.06047 1.85247 4.794 1.57602C5.494 1.30502 6.294 1.11902 7.464 1.06502H7.465ZM16.445 3.04502C15.285 2.99202 14.937 2.98102 12 2.98102C9.063 2.98102 8.715 2.99202 7.555 3.04502C6.482 3.09402 5.9 3.27302 5.512 3.42402C4.999 3.62402 4.632 3.86102 4.247 4.24602C3.88205 4.60108 3.60118 5.03331 3.425 5.51102C3.274 5.89902 3.095 6.48102 3.046 7.55402C2.993 8.71402 2.982 9.06202 2.982 11.999C2.982 14.936 2.993 15.284 3.046 16.444C3.095 17.517 3.274 18.099 3.425 18.487C3.601 18.964 3.882 19.397 4.247 19.752C4.602 20.117 5.035 20.398 5.512 20.574C5.9 20.725 6.482 20.904 7.555 20.953C8.715 21.006 9.062 21.017 12 21.017C14.938 21.017 15.285 21.006 16.445 20.953C17.518 20.904 18.1 20.725 18.488 20.574C19.001 20.374 19.368 20.137 19.753 19.752C20.118 19.397 20.399 18.964 20.575 18.487C20.726 18.099 20.905 17.517 20.954 16.444C21.007 15.284 21.018 14.936 21.018 11.999C21.018 9.06202 21.007 8.71402 20.954 7.55402C20.905 6.48102 20.726 5.89902 20.575 5.51102C20.375 4.99802 20.138 4.63102 19.753 4.24602C19.3979 3.88109 18.9657 3.60023 18.488 3.42402C18.1 3.27302 17.518 3.09402 16.445 3.04502ZM10.595 15.39C11.3797 15.7167 12.2534 15.7607 13.0669 15.5147C13.8805 15.2688 14.5834 14.7479 15.0556 14.0413C15.5278 13.3346 15.7401 12.4859 15.656 11.6401C15.572 10.7944 15.197 10.004 14.595 9.40402C14.2112 9.0205 13.7472 8.72684 13.2363 8.54417C12.7255 8.36151 12.1804 8.29438 11.6405 8.34764C11.1006 8.40089 10.5792 8.5732 10.1138 8.85215C9.64845 9.13111 9.25074 9.50977 8.9493 9.96087C8.64786 10.412 8.45019 10.9243 8.37052 11.461C8.29084 11.9977 8.33115 12.5453 8.48854 13.0645C8.64593 13.5838 8.91648 14.0616 9.28072 14.4637C9.64496 14.8659 10.0938 15.1822 10.595 15.39ZM8.002 8.00102C8.52702 7.476 9.15032 7.05953 9.8363 6.77538C10.5223 6.49124 11.2575 6.345 12 6.345C12.7425 6.345 13.4777 6.49124 14.1637 6.77538C14.8497 7.05953 15.473 7.476 15.998 8.00102C16.523 8.52605 16.9395 9.14934 17.2236 9.83532C17.5078 10.5213 17.654 11.2565 17.654 11.999C17.654 12.7415 17.5078 13.4767 17.2236 14.1627C16.9395 14.8487 16.523 15.472 15.998 15.997C14.9377 17.0574 13.4995 17.653 12 17.653C10.5005 17.653 9.06234 17.0574 8.002 15.997C6.94166 14.9367 6.34597 13.4986 6.34597 11.999C6.34597 10.4995 6.94166 9.06136 8.002 8.00102ZM18.908 7.18702C19.0381 7.06429 19.1423 6.9167 19.2143 6.753C19.2863 6.58929 19.3248 6.41279 19.3274 6.23395C19.33 6.05511 19.2967 5.87757 19.2295 5.71183C19.1622 5.5461 19.0624 5.39553 18.936 5.26906C18.8095 5.14259 18.6589 5.04278 18.4932 4.97554C18.3275 4.9083 18.1499 4.875 17.9711 4.87761C17.7922 4.88021 17.6157 4.91868 17.452 4.99072C17.2883 5.06276 17.1407 5.16692 17.018 5.29702C16.7793 5.55005 16.6486 5.88614 16.6537 6.23395C16.6588 6.58176 16.7992 6.9139 17.0452 7.15987C17.2911 7.40583 17.6233 7.54625 17.9711 7.55132C18.3189 7.55639 18.655 7.42571 18.908 7.18702Z" fill="#757575"/>
</svg>
