<svg width="24" height="24" viewBox="0 0 24 24" fill="none" xmlns="http://www.w3.org/2000/svg">
<path d="M20 3.99902H4C2.9 3.99902 2 4.89902 2 5.99902V17.999C2 19.099 2.9 19.999 4 19.999H20C21.1 19.999 22 19.099 22 17.999V5.99902C22 4.89902 21.1 3.99902 20 3.99902ZM19.6 8.24902L13.06 12.339C12.41 12.749 11.59 12.749 10.94 12.339L4.4 8.24902C4.29973 8.19273 4.21192 8.11668 4.14189 8.02548C4.07186 7.93427 4.02106 7.8298 3.99258 7.71839C3.96409 7.60699 3.9585 7.49096 3.97616 7.37733C3.99381 7.2637 4.03434 7.15484 4.09528 7.05732C4.15623 6.95981 4.23632 6.87568 4.33073 6.81002C4.42513 6.74436 4.53187 6.69853 4.6445 6.67532C4.75712 6.65211 4.87328 6.65199 4.98595 6.67497C5.09863 6.69795 5.20546 6.74356 5.3 6.80902L12 10.999L18.7 6.80902C18.7945 6.74356 18.9014 6.69795 19.014 6.67497C19.1267 6.65199 19.2429 6.65211 19.3555 6.67532C19.4681 6.69853 19.5749 6.74436 19.6693 6.81002C19.7637 6.87568 19.8438 6.95981 19.9047 7.05732C19.9657 7.15484 20.0062 7.2637 20.0238 7.37733C20.0415 7.49096 20.0359 7.60699 20.0074 7.71839C19.9789 7.8298 19.9281 7.93427 19.8581 8.02548C19.7881 8.11668 19.7003 8.19273 19.6 8.24902Z" fill="#1FB767"/>
</svg>
