<svg width="24" height="24" viewBox="0 0 24 24" fill="none" xmlns="http://www.w3.org/2000/svg">
<g clip-path="url(#clip0_742_16526)">
<path d="M18.364 4.63508C20.0163 6.28721 20.9613 8.5172 20.9992 10.8535C21.0371 13.1898 20.1649 15.4492 18.567 17.1541L18.364 17.3641L14.121 21.6061C13.5826 22.1441 12.8599 22.4574 12.0992 22.4825C11.3384 22.5075 10.5966 22.2425 10.024 21.7411L9.88 21.6061L5.636 17.3631C3.94816 15.6752 2.99995 13.386 2.99995 10.9991C2.99995 8.61212 3.94816 6.32292 5.636 4.63508C7.32384 2.94724 9.61304 1.99902 12 1.99902C14.387 1.99902 16.6762 2.94724 18.364 4.63508ZM12 7.99908C11.606 7.99908 11.2159 8.07668 10.852 8.22744C10.488 8.3782 10.1573 8.59918 9.87868 8.87776C9.60011 9.15633 9.37913 9.48705 9.22836 9.85103C9.0776 10.215 9 10.6051 9 10.9991C9 11.393 9.0776 11.7832 9.22836 12.1471C9.37913 12.5111 9.60011 12.8418 9.87868 13.1204C10.1573 13.399 10.488 13.62 10.852 13.7707C11.2159 13.9215 11.606 13.9991 12 13.9991C12.7957 13.9991 13.5587 13.683 14.1213 13.1204C14.6839 12.5578 15 11.7947 15 10.9991C15 10.2034 14.6839 9.44037 14.1213 8.87776C13.5587 8.31515 12.7957 7.99908 12 7.99908Z" fill="#1FB767"/>
</g>
<defs>
<clipPath id="clip0_742_16526">
<rect width="24" height="24" fill="white" transform="translate(0 -0.000976562)"/>
</clipPath>
</defs>
</svg>
