<svg width="20" height="21" viewBox="0 0 20 21" fill="none" xmlns="http://www.w3.org/2000/svg">
<path d="M15 16.3324H5C4.54167 16.3324 4.16667 15.9574 4.16667 15.499V5.49902C4.16667 5.04069 4.54167 4.66569 5 4.66569H9.16667C9.625 4.66569 10 4.29069 10 3.83236C10 3.37402 9.625 2.99902 9.16667 2.99902H4.16667C3.72464 2.99902 3.30072 3.17462 2.98816 3.48718C2.67559 3.79974 2.5 4.22366 2.5 4.66569V16.3324C2.5 17.249 3.25 17.999 4.16667 17.999H15.8333C16.75 17.999 17.5 17.249 17.5 16.3324V11.3324C17.5 10.874 17.125 10.499 16.6667 10.499C16.2083 10.499 15.8333 10.874 15.8333 11.3324V15.499C15.8333 15.9574 15.4583 16.3324 15 16.3324ZM11.6667 3.83236C11.6667 4.29069 12.0417 4.66569 12.5 4.66569H14.6583L7.05 12.274C6.89419 12.4298 6.80665 12.6412 6.80665 12.8615C6.80665 13.0819 6.89419 13.2932 7.05 13.449C7.20581 13.6048 7.41714 13.6924 7.6375 13.6924C7.85786 13.6924 8.06919 13.6048 8.225 13.449L15.8333 5.84069V7.99902C15.8333 8.45736 16.2083 8.83236 16.6667 8.83236C17.125 8.83236 17.5 8.45736 17.5 7.99902V3.83236C17.5 3.37402 17.125 2.99902 16.6667 2.99902H12.5C12.0417 2.99902 11.6667 3.37402 11.6667 3.83236Z" fill="#E3E7ED"/>
</svg>
