<svg width="29" height="29" viewBox="0 0 29 29" fill="none" xmlns="http://www.w3.org/2000/svg">
<rect x="0.0217285" y="0.0214844" width="28" height="28" rx="14" fill="#E0E0E0"/>
<path d="M10.1085 9.08767C9.8378 9.08767 9.57815 9.19523 9.3867 9.38667C9.19526 9.57811 9.08771 9.83777 9.08771 10.1085V17.9349C9.08771 18.2056 9.19526 18.4653 9.3867 18.6567C9.57815 18.8482 9.8378 18.9557 10.1085 18.9557H17.9349C18.2057 18.9557 18.4653 18.8482 18.6568 18.6567C18.8482 18.4653 18.9558 18.2056 18.9558 17.9349V15.2127C18.9558 15.0322 19.0275 14.8591 19.1551 14.7314C19.2827 14.6038 19.4558 14.5321 19.6363 14.5321C19.8168 14.5321 19.9899 14.6038 20.1175 14.7314C20.2452 14.8591 20.3169 15.0322 20.3169 15.2127V17.9349C20.3169 18.5666 20.0659 19.1725 19.6192 19.6192C19.1725 20.0659 18.5667 20.3168 17.9349 20.3168H10.1085C9.47681 20.3168 8.87095 20.0659 8.42425 19.6192C7.97755 19.1725 7.7266 18.5666 7.7266 17.9349V10.1085C7.7266 9.47678 7.97755 8.87092 8.42425 8.42422C8.87095 7.97752 9.47681 7.72656 10.1085 7.72656H12.8308C13.0113 7.72656 13.1844 7.79826 13.312 7.92589C13.4396 8.05352 13.5113 8.22662 13.5113 8.40712C13.5113 8.58761 13.4396 8.76071 13.312 8.88834C13.1844 9.01597 13.0113 9.08767 12.8308 9.08767H10.1085ZM14.5322 8.40712C14.5322 8.22662 14.6039 8.05352 14.7315 7.92589C14.8591 7.79826 15.0322 7.72656 15.2127 7.72656H19.6363C19.8168 7.72656 19.9899 7.79826 20.1175 7.92589C20.2452 8.05352 20.3169 8.22662 20.3169 8.40712V12.8307C20.3169 13.0112 20.2452 13.1843 20.1175 13.312C19.9899 13.4396 19.8168 13.5113 19.6363 13.5113C19.4558 13.5113 19.2827 13.4396 19.1551 13.312C19.0275 13.1843 18.9558 13.0112 18.9558 12.8307V10.05L15.6939 13.3119C15.6311 13.3769 15.556 13.4287 15.473 13.4644C15.3899 13.5001 15.3006 13.5188 15.2103 13.5196C15.1199 13.5204 15.0303 13.5032 14.9466 13.469C14.863 13.4348 14.787 13.3842 14.7231 13.3203C14.6592 13.2564 14.6087 13.1804 14.5745 13.0968C14.5402 13.0132 14.523 12.9235 14.5238 12.8332C14.5246 12.7428 14.5434 12.6535 14.579 12.5705C14.6147 12.4875 14.6666 12.4124 14.7316 12.3496L17.9935 9.08767H15.2127C15.0322 9.08767 14.8591 9.01597 14.7315 8.88834C14.6039 8.76071 14.5322 8.58761 14.5322 8.40712Z" fill="white"/>
</svg>
