<svg width="21" height="20" viewBox="0 0 21 20" fill="none" xmlns="http://www.w3.org/2000/svg">
<path d="M15.8333 16.2212H5.16667C4.67778 16.2212 4.27778 15.8212 4.27778 15.3324V4.66569C4.27778 4.1768 4.67778 3.7768 5.16667 3.7768H9.61111C10.1 3.7768 10.5 3.3768 10.5 2.88791C10.5 2.39902 10.1 1.99902 9.61111 1.99902H4.27778C3.80628 1.99902 3.3541 2.18632 3.0207 2.51972C2.6873 2.85312 2.5 3.30531 2.5 3.7768V16.2212C2.5 17.199 3.3 17.999 4.27778 17.999H16.7222C17.7 17.999 18.5 17.199 18.5 16.2212V10.8879C18.5 10.399 18.1 9.99902 17.6111 9.99902C17.1222 9.99902 16.7222 10.399 16.7222 10.8879V15.3324C16.7222 15.8212 16.3222 16.2212 15.8333 16.2212ZM12.2778 2.88791C12.2778 3.3768 12.6778 3.7768 13.1667 3.7768H15.4689L7.35333 11.8924C7.18713 12.0586 7.09376 12.284 7.09376 12.519C7.09376 12.7541 7.18713 12.9795 7.35333 13.1457C7.51954 13.3119 7.74495 13.4053 7.98 13.4053C8.21505 13.4053 8.44046 13.3119 8.60667 13.1457L16.7222 5.03013V7.33236C16.7222 7.82125 17.1222 8.22125 17.6111 8.22125C18.1 8.22125 18.5 7.82125 18.5 7.33236V2.88791C18.5 2.39902 18.1 1.99902 17.6111 1.99902H13.1667C12.6778 1.99902 12.2778 2.39902 12.2778 2.88791Z" fill="#16A75C"/>
</svg>
