<svg width="24" height="26" viewBox="0 0 24 26" fill="none" xmlns="http://www.w3.org/2000/svg">
<path d="M3.45334 25.7861C3.02669 25.7853 2.60759 25.6734 2.23727 25.4615C1.4034 24.989 0.88501 24.0718 0.88501 23.076V2.92407C0.88501 1.92551 1.4034 1.01103 2.23727 0.538505C2.61641 0.320612 3.04711 0.20856 3.48437 0.21406C3.92162 0.219561 4.34937 0.342413 4.72291 0.569775L21.9458 10.8792C22.3048 11.1043 22.6007 11.4168 22.8058 11.7875C23.0109 12.1582 23.1185 12.575 23.1185 12.9986C23.1185 13.4223 23.0109 13.839 22.8058 14.2097C22.6007 14.5804 22.3048 14.893 21.9458 15.1181L4.72013 25.4303C4.33786 25.6614 3.90002 25.7843 3.45334 25.7861Z" fill="white"/>
</svg>
