<svg width="24" height="24" viewBox="0 0 24 24" fill="none" xmlns="http://www.w3.org/2000/svg">
<path d="M16.5 11.999C16.8283 11.999 17.1534 11.9344 17.4567 11.8087C17.76 11.6831 18.0356 11.4989 18.2678 11.2668C18.4999 11.0346 18.6841 10.759 18.8097 10.4557C18.9353 10.1524 19 9.82733 19 9.49902C19 8.83598 18.7366 8.2001 18.2678 7.73126C17.7989 7.26242 17.163 6.99902 16.5 6.99902C15.837 6.99902 15.2011 7.26242 14.7322 7.73126C14.2634 8.2001 14 8.83598 14 9.49902C14 9.82733 14.0647 10.1524 14.1903 10.4557C14.3159 10.759 14.5001 11.0346 14.7322 11.2668C15.2011 11.7356 15.837 11.999 16.5 11.999ZM9 10.999C9.79565 10.999 10.5587 10.683 11.1213 10.1203C11.6839 9.55773 12 8.79467 12 7.99902C12 7.20337 11.6839 6.44031 11.1213 5.8777C10.5587 5.31509 9.79565 4.99902 9 4.99902C8.20435 4.99902 7.44129 5.31509 6.87868 5.8777C6.31607 6.44031 6 7.20337 6 7.99902C6 8.79467 6.31607 9.55773 6.87868 10.1203C7.44129 10.683 8.20435 10.999 9 10.999ZM16.5 13.999C14.67 13.999 11 14.919 11 16.749V18.999H22V16.749C22 14.919 18.33 13.999 16.5 13.999ZM9 12.999C6.67 12.999 2 14.169 2 16.499V18.999H9V16.749C9 15.899 9.33 14.409 11.37 13.279C10.5 13.099 9.66 12.999 9 12.999Z" fill="#1FB767"/>
</svg>
