<svg width="24" height="24" viewBox="0 0 24 24" fill="none" xmlns="http://www.w3.org/2000/svg">
<path fill-rule="evenodd" clip-rule="evenodd" d="M18.9639 22.8741C19.4391 22.4337 19.7499 21.5145 19.8111 20.9601C20.5191 20.5209 21.3567 19.6353 21.4299 17.9673C22.6935 17.0901 23.6535 15.4677 22.4547 13.0953C23.1507 12.4473 23.9271 10.4697 22.9287 8.87612C21.7659 7.01372 19.2387 6.88412 16.7199 7.21652C17.3919 5.33852 17.6439 3.60572 16.5807 1.83092C15.5235 0.256523 14.0643 0.000923157 13.5651 0.000923157C12.1995 0.000923157 11.2635 1.17572 10.8843 2.74052C10.7463 3.17732 10.5891 4.20932 10.5279 4.48052C10.2099 6.20852 9.1407 7.59092 7.3239 8.62412C6.51562 9.08839 5.66198 9.46877 4.7763 9.75932H1.9683C1.3431 9.75932 0.595497 10.3917 0.595497 11.1573V20.3205C0.684297 21.1869 1.1655 21.6189 2.0379 21.6189H5.7699C7.4067 21.9909 9.0387 22.3893 10.6647 22.8129C12.2355 23.2365 12.5799 23.3769 13.6791 23.6793C16.1427 24.3177 17.8527 23.9661 18.9639 22.8741ZM16.1055 22.3653C15.1227 22.3653 13.8783 22.0629 13.3263 21.8865C13.1319 21.8253 12.7911 21.7245 12.4323 21.6213L12.0723 21.5169L11.7267 21.4185L11.0547 21.2289C11.0547 21.2289 9.3627 20.7753 6.0471 20.0049C5.9235 19.9905 5.8575 19.9809 5.8479 19.9785V11.1225C7.6611 10.4241 9.0735 9.57692 10.0839 8.58092C11.6007 7.08812 12.0219 5.73932 12.2703 4.01252C12.4119 3.14492 12.6411 2.44532 12.9867 1.96652C13.086 1.82305 13.2305 1.717 13.3971 1.66532C13.5735 1.60892 13.8171 1.60532 14.3367 1.88612C14.8563 2.16932 15.5247 2.90972 15.6507 4.01252C15.7347 5.08412 15.4467 6.01292 15.0603 6.98972C14.9269 7.32253 14.784 7.65146 14.6319 7.97612C14.3703 8.47172 14.7639 9.29492 15.5751 9.11612C16.6623 8.81012 19.3599 8.39612 20.8815 9.11612C21.7659 9.62852 21.9855 10.4553 21.5379 11.5953C21.3899 11.8567 21.1873 12.083 20.9439 12.2589C20.7399 12.3813 20.3415 12.9117 20.8203 13.5129C21.2955 14.2749 21.9903 15.8265 20.2323 16.7937C20.1096 16.8612 20.0071 16.9601 19.9354 17.0803C19.8637 17.2005 19.8253 17.3377 19.8243 17.4777C19.8003 17.8065 19.8531 19.0257 18.9483 19.5705C18.7323 19.6869 18.4719 19.7829 18.3243 20.0625C18.2307 20.2473 18.2007 20.6961 18.2007 20.6961C18.0771 21.4545 17.9067 22.1625 16.1055 22.3653ZM4.2183 19.9833H2.2287V11.3949H4.2183V19.9833Z" fill="#16A75C"/>
</svg>
