<svg width="24" height="24" viewBox="0 0 24 24" fill="none" xmlns="http://www.w3.org/2000/svg">
<path fill-rule="evenodd" clip-rule="evenodd" d="M18.9639 1.12417C19.4391 1.56457 19.7499 2.48377 19.8111 3.03817C20.5191 3.47737 21.3567 4.36297 21.4299 6.03097C22.6935 6.90817 23.6535 8.53057 22.4547 10.903C23.1507 11.551 23.9271 13.5286 22.9287 15.1222C21.7659 16.9846 19.2387 17.1142 16.7199 16.7818C17.3919 18.6598 17.6439 20.3926 16.5807 22.1674C15.5235 23.7418 14.0643 23.9974 13.5651 23.9974C12.1995 23.9974 11.2635 22.8226 10.8843 21.2578C10.7463 20.821 10.5891 19.789 10.5279 19.5178C10.2099 17.7898 9.1407 16.4074 7.3239 15.3742C6.51562 14.9099 5.66198 14.5295 4.7763 14.239H1.9683C1.3431 14.239 0.595497 13.6066 0.595497 12.841V3.67777C0.684297 2.81137 1.1655 2.37937 2.0379 2.37937H5.7699C7.4067 2.00737 9.0387 1.60897 10.6647 1.18537C12.2355 0.761769 12.5799 0.621369 13.6791 0.318969C16.1427 -0.319431 17.8527 0.0321689 18.9639 1.12417ZM16.1055 1.63297C15.1227 1.63297 13.8783 1.93537 13.3263 2.11177C13.1319 2.17297 12.7911 2.27377 12.4323 2.37697L12.0723 2.48137L11.7267 2.57977L11.0547 2.76937C11.0547 2.76937 9.3627 3.22297 6.0471 3.99337C5.9235 4.00777 5.8575 4.01737 5.8479 4.01977V12.8758C7.6611 13.5742 9.0735 14.4214 10.0839 15.4174C11.6007 16.9102 12.0219 18.259 12.2703 19.9858C12.4119 20.8534 12.6411 21.553 12.9867 22.0318C13.086 22.1752 13.2305 22.2813 13.3971 22.333C13.5735 22.3894 13.8171 22.393 14.3367 22.1122C14.8563 21.829 15.5247 21.0886 15.6507 19.9858C15.7347 18.9142 15.4467 17.9854 15.0603 17.0086C14.9269 16.6758 14.784 16.3468 14.6319 16.0222C14.3703 15.5266 14.7639 14.7034 15.5751 14.8822C16.6623 15.1882 19.3599 15.6022 20.8815 14.8822C21.7659 14.3698 21.9855 13.543 21.5379 12.403C21.3899 12.1416 21.1873 11.9153 20.9439 11.7394C20.7399 11.617 20.3415 11.0866 20.8203 10.4854C21.2955 9.72337 21.9903 8.17177 20.2323 7.20457C20.1096 7.13714 20.0071 7.0382 19.9354 6.91797C19.8637 6.79774 19.8253 6.66056 19.8243 6.52057C19.8003 6.19177 19.8531 4.97257 18.9483 4.42777C18.7323 4.31137 18.4719 4.21537 18.3243 3.93577C18.2307 3.75097 18.2007 3.30217 18.2007 3.30217C18.0771 2.54377 17.9067 1.83577 16.1055 1.63297ZM4.2183 4.01497H2.2287V12.6034H4.2183V4.01497Z" fill="#EF5350"/>
</svg>
