<svg width="24" height="24" viewBox="0 0 24 24" fill="none" xmlns="http://www.w3.org/2000/svg">
<g clip-path="url(#clip0_742_16569)">
<path d="M12.0029 19.4315L12.0029 20.4315L12.0029 19.4315H12.0027H12.0018L11.998 19.4315L11.9825 19.4315L11.9205 19.4314C11.866 19.4313 11.7854 19.431 11.682 19.4305C11.4752 19.4295 11.1771 19.4275 10.8135 19.4236C10.0859 19.4156 9.0975 19.3997 8.05252 19.368C7.0059 19.3362 5.91072 19.2888 4.96695 19.2184C3.9943 19.1458 3.26877 19.0542 2.90954 18.9555L2.90765 18.955C2.56864 18.8626 2.25875 18.6821 2.00918 18.4306C1.76152 18.1811 1.58187 17.8704 1.48858 17.5287C0.745801 14.5354 0.936469 9.65433 1.48258 6.38383C1.57827 6.05529 1.75418 5.75671 1.9937 5.51538C2.24327 5.26394 2.55317 5.08343 2.89219 4.99099L2.8922 4.99099L2.89407 4.99048C3.25412 4.89156 3.98039 4.7991 4.953 4.72508C5.89695 4.65325 6.99229 4.60391 8.03898 4.57021C9.08405 4.53656 10.0725 4.51875 10.8002 4.50936C11.1638 4.50466 11.4619 4.50208 11.6687 4.50067C11.7721 4.49996 11.8527 4.49955 11.9073 4.49931L11.9692 4.49908L11.9848 4.49903L11.9886 4.49902L11.9887 4.49902L11.9925 4.49903L12.0081 4.49904L12.07 4.49915C12.1246 4.49927 12.2052 4.49952 12.3086 4.50001C12.5154 4.501 12.8134 4.50299 13.177 4.50696C13.9046 4.51491 14.893 4.5308 15.9379 4.56253C16.9845 4.5943 18.0797 4.64173 19.0235 4.71213C19.9961 4.78468 20.7216 4.87629 21.0808 4.97499L21.0827 4.97551C21.4217 5.06794 21.7316 5.24844 21.9812 5.49987C22.2286 5.7491 22.4081 6.05941 22.5015 6.40072C23.2416 9.41492 23.0824 14.2982 22.5088 17.5585C22.4133 17.8885 22.237 18.1884 21.9965 18.4306C21.747 18.6821 21.4371 18.8626 21.098 18.955L21.0961 18.9555C20.7369 19.0542 20.0114 19.1458 19.0388 19.2184C18.095 19.2888 16.9999 19.3362 15.9533 19.368C14.9083 19.3997 13.9199 19.4156 13.1923 19.4236C12.8287 19.4275 12.5307 19.4295 12.3239 19.4305C12.2204 19.431 12.1399 19.4313 12.0853 19.4314L12.0234 19.4315L12.0078 19.4315L12.004 19.4315H12.0031H12.0029Z" stroke="#757575" stroke-width="2"/>
<path d="M9.60187 15.5936L15.8202 11.9653L9.60197 8.33691L9.60187 15.5936Z" fill="#757575"/>
</g>
<defs>
<clipPath id="clip0_742_16569">
<rect width="24" height="17" fill="white" transform="translate(0 3.49902)"/>
</clipPath>
</defs>
</svg>
