<svg width="439" height="264" viewBox="0 0 439 264" fill="none" xmlns="http://www.w3.org/2000/svg">
<path fill-rule="evenodd" clip-rule="evenodd" d="M219.577 207.134H219.579C228.174 209.329 234.331 213.823 238.331 220.353L219.579 263.5H219.577L200.825 220.353C204.825 213.823 210.982 209.329 219.577 207.134ZM119.437 207.134H119.439C128.034 209.329 134.191 213.823 138.191 220.353L119.439 263.5H119.437L100.686 220.353C104.684 213.823 110.843 209.329 119.437 207.134ZM19.2977 207.134C27.8945 209.329 34.0516 213.823 38.0494 220.353L19.2977 263.5L0.543945 220.353C4.54391 213.823 10.7009 209.329 19.2977 207.134ZM319.718 207.134C311.122 209.329 304.965 213.823 300.967 220.353L319.718 263.5L338.47 220.353C334.472 213.823 328.315 209.329 319.718 207.134ZM419.86 207.134H419.858C411.263 209.329 405.106 213.823 401.106 220.353L419.858 263.5H419.86L438.612 220.353C434.612 213.823 428.457 209.329 419.86 207.134ZM138.801 74.2554C162.377 59.5791 187.144 50.4189 213.215 47.3258L219.579 0.419342L225.941 47.3258C252.014 50.4189 276.781 59.5791 300.357 74.2554L219.579 156.85L138.801 74.2554ZM69.3665 143.149C88.0218 147.285 103.791 156.052 115.502 171.321L69.3665 263.5L23.2328 171.321C34.9437 156.052 50.7111 147.285 69.3665 143.149ZM369.789 143.149C351.134 147.285 335.366 156.052 323.654 171.321L369.789 263.5L415.923 171.321C404.212 156.052 388.445 147.285 369.789 143.149ZM269.65 143.149C250.992 147.285 235.225 156.052 223.514 171.321L269.65 263.5L315.783 171.321C304.073 156.052 288.303 147.285 269.65 143.149ZM169.508 143.149C188.163 147.285 203.931 156.052 215.642 171.321L169.508 263.5L123.374 171.321C135.085 156.052 150.853 147.285 169.508 143.149ZM319.718 89.9097C299.457 92.7662 285.384 101.066 275.537 113.091L319.718 161.254L363.902 113.091C354.055 101.066 339.982 92.7662 319.718 89.9097ZM119.437 89.9097C139.701 92.7662 153.772 101.066 163.621 113.091L119.437 161.254L75.2554 113.091C85.1025 101.066 99.1756 92.7662 119.437 89.9097Z" fill="white" fill-opacity="0.06"/>
</svg>
